<mxfile host="65bd71144e">
    <diagram id="E7ldCtruO4oG1RlkcBHm" name="Page-1">
        <mxGraphModel dx="899" dy="593" grid="0" gridSize="10" guides="1" tooltips="1" connect="1" arrows="1" fold="1" page="1" pageScale="1" pageWidth="1100" pageHeight="850" background="light-dark(#000000, #121212)" math="0" shadow="0" adaptiveColors="auto">
            <root>
                <mxCell id="0"/>
                <mxCell id="1" parent="0"/>
                <mxCell id="2" value="&lt;font style=&quot;color: light-dark(rgb(255, 255, 255), rgb(237, 237, 237));&quot;&gt;Stack Pointer&lt;/font&gt;" style="text;html=1;align=center;verticalAlign=middle;whiteSpace=wrap;rounded=0;" parent="1" vertex="1">
                    <mxGeometry x="31" y="33" width="97" height="22" as="geometry"/>
                </mxCell>
                <mxCell id="12" style="edgeStyle=none;html=1;exitX=0.5;exitY=1;exitDx=0;exitDy=0;entryX=0.5;entryY=0;entryDx=0;entryDy=0;strokeColor=light-dark(#ffffff, #ededed);" parent="1" source="3" target="8" edge="1">
                    <mxGeometry relative="1" as="geometry"/>
                </mxCell>
                <mxCell id="3" value="T1" style="whiteSpace=wrap;html=1;aspect=fixed;" parent="1" vertex="1">
                    <mxGeometry x="31" y="83" width="80" height="80" as="geometry"/>
                </mxCell>
                <mxCell id="13" style="edgeStyle=none;html=1;exitX=0.5;exitY=1;exitDx=0;exitDy=0;entryX=0.5;entryY=0;entryDx=0;entryDy=0;strokeColor=light-dark(#ffffff, #ededed);" parent="1" source="4" target="9" edge="1">
                    <mxGeometry relative="1" as="geometry">
                        <Array as="points">
                            <mxPoint x="171" y="193"/>
                        </Array>
                    </mxGeometry>
                </mxCell>
                <mxCell id="4" value="T2" style="whiteSpace=wrap;html=1;aspect=fixed;" parent="1" vertex="1">
                    <mxGeometry x="131" y="83" width="80" height="80" as="geometry"/>
                </mxCell>
                <mxCell id="14" style="edgeStyle=none;html=1;exitX=0.5;exitY=1;exitDx=0;exitDy=0;entryX=0.5;entryY=0;entryDx=0;entryDy=0;strokeColor=light-dark(#ffffff, #ededed);" parent="1" source="5" target="10" edge="1">
                    <mxGeometry relative="1" as="geometry"/>
                </mxCell>
                <mxCell id="5" value="T3" style="whiteSpace=wrap;html=1;aspect=fixed;" parent="1" vertex="1">
                    <mxGeometry x="231" y="83" width="80" height="80" as="geometry"/>
                </mxCell>
                <mxCell id="15" style="edgeStyle=none;html=1;exitX=0.5;exitY=1;exitDx=0;exitDy=0;entryX=0.5;entryY=0;entryDx=0;entryDy=0;strokeColor=light-dark(#ffffff, #ededed);" parent="1" source="6" target="7" edge="1">
                    <mxGeometry relative="1" as="geometry"/>
                </mxCell>
                <mxCell id="6" value="T4" style="whiteSpace=wrap;html=1;aspect=fixed;" parent="1" vertex="1">
                    <mxGeometry x="331" y="83" width="80" height="80" as="geometry"/>
                </mxCell>
                <mxCell id="7" value="&lt;span style=&quot;color: rgb(0, 0, 0);&quot;&gt;Stack_T4&lt;/span&gt;" style="whiteSpace=wrap;html=1;aspect=fixed;" parent="1" vertex="1">
                    <mxGeometry x="331" y="223" width="80" height="80" as="geometry"/>
                </mxCell>
                <mxCell id="8" value="Stack_T1" style="whiteSpace=wrap;html=1;aspect=fixed;" parent="1" vertex="1">
                    <mxGeometry x="31" y="223" width="80" height="80" as="geometry"/>
                </mxCell>
                <mxCell id="9" value="&lt;span style=&quot;color: rgb(0, 0, 0);&quot;&gt;Stack_T2&lt;/span&gt;" style="whiteSpace=wrap;html=1;aspect=fixed;" parent="1" vertex="1">
                    <mxGeometry x="131" y="223" width="80" height="80" as="geometry"/>
                </mxCell>
                <mxCell id="10" value="&lt;span style=&quot;color: rgb(0, 0, 0);&quot;&gt;Stack_T3&lt;/span&gt;" style="whiteSpace=wrap;html=1;aspect=fixed;" parent="1" vertex="1">
                    <mxGeometry x="231" y="223" width="80" height="80" as="geometry"/>
                </mxCell>
                <mxCell id="16" value="Scheduler" style="rounded=1;whiteSpace=wrap;html=1;" parent="1" vertex="1">
                    <mxGeometry x="489" y="95" width="251" height="192" as="geometry"/>
                </mxCell>
                <mxCell id="17" value="Text" style="text;html=1;align=center;verticalAlign=middle;whiteSpace=wrap;rounded=0;" parent="1" vertex="1">
                    <mxGeometry x="284" y="207" width="60" height="30" as="geometry"/>
                </mxCell>
                <mxCell id="18" value="&lt;font style=&quot;color: light-dark(rgb(255, 255, 255), rgb(237, 237, 237));&quot;&gt;PSP Thread Mode&amp;nbsp;&lt;/font&gt;" style="text;html=1;align=center;verticalAlign=middle;whiteSpace=wrap;rounded=0;" parent="1" vertex="1">
                    <mxGeometry x="101" y="350" width="181" height="28" as="geometry"/>
                </mxCell>
                <mxCell id="19" value="&lt;font style=&quot;color: light-dark(rgb(255, 255, 255), rgb(237, 237, 237));&quot;&gt;MSP Thread Mode&amp;nbsp;&lt;/font&gt;" style="text;html=1;align=center;verticalAlign=middle;whiteSpace=wrap;rounded=0;" parent="1" vertex="1">
                    <mxGeometry x="524" y="350" width="181" height="28" as="geometry"/>
                </mxCell>
                <mxCell id="20" value="" style="rounded=1;whiteSpace=wrap;html=1;" vertex="1" parent="1">
                    <mxGeometry x="68" y="521" width="897" height="187" as="geometry"/>
                </mxCell>
                <mxCell id="21" value="&lt;font style=&quot;color: light-dark(rgb(255, 255, 255), rgb(237, 237, 237));&quot;&gt;RAM START&lt;/font&gt;" style="text;html=1;align=center;verticalAlign=middle;whiteSpace=wrap;rounded=0;" vertex="1" parent="1">
                    <mxGeometry x="50" y="477" width="181" height="28" as="geometry"/>
                </mxCell>
                <mxCell id="22" value="Task scheduler" style="rounded=1;whiteSpace=wrap;html=1;fillColor=#ffe6cc;strokeColor=#d79b00;" vertex="1" parent="1">
                    <mxGeometry x="229" y="521" width="122" height="186" as="geometry"/>
                </mxCell>
                <mxCell id="23" value="Task 4" style="rounded=1;whiteSpace=wrap;html=1;fillColor=#ffe6cc;strokeColor=#d79b00;" vertex="1" parent="1">
                    <mxGeometry x="371" y="522" width="122" height="186" as="geometry"/>
                </mxCell>
                <mxCell id="24" value="Task 3" style="rounded=1;whiteSpace=wrap;html=1;fillColor=#ffe6cc;strokeColor=#d79b00;" vertex="1" parent="1">
                    <mxGeometry x="512" y="521" width="122" height="186" as="geometry"/>
                </mxCell>
                <mxCell id="25" value="Task 2" style="rounded=1;whiteSpace=wrap;html=1;fillColor=#ffe6cc;strokeColor=#d79b00;" vertex="1" parent="1">
                    <mxGeometry x="650" y="521" width="122" height="186" as="geometry"/>
                </mxCell>
                <mxCell id="26" value="Task 1" style="rounded=1;whiteSpace=wrap;html=1;fillColor=#ffe6cc;strokeColor=#d79b00;" vertex="1" parent="1">
                    <mxGeometry x="788" y="522" width="122" height="186" as="geometry"/>
                </mxCell>
                <mxCell id="27" value="&lt;font style=&quot;color: light-dark(rgb(255, 255, 255), rgb(237, 237, 237));&quot;&gt;5Kb&lt;/font&gt;" style="text;html=1;align=center;verticalAlign=middle;whiteSpace=wrap;rounded=0;" vertex="1" parent="1">
                    <mxGeometry x="199.5" y="477" width="181" height="28" as="geometry"/>
                </mxCell>
                <mxCell id="28" value="&lt;font style=&quot;color: light-dark(rgb(255, 255, 255), rgb(237, 237, 237));&quot;&gt;5Kb&lt;/font&gt;" style="text;html=1;align=center;verticalAlign=middle;whiteSpace=wrap;rounded=0;" vertex="1" parent="1">
                    <mxGeometry x="482.5" y="474" width="181" height="28" as="geometry"/>
                </mxCell>
                <mxCell id="29" value="&lt;font style=&quot;color: light-dark(rgb(255, 255, 255), rgb(237, 237, 237));&quot;&gt;5Kb&lt;/font&gt;" style="text;html=1;align=center;verticalAlign=middle;whiteSpace=wrap;rounded=0;" vertex="1" parent="1">
                    <mxGeometry x="620.5" y="474" width="181" height="28" as="geometry"/>
                </mxCell>
                <mxCell id="30" value="&lt;font style=&quot;color: light-dark(rgb(255, 255, 255), rgb(237, 237, 237));&quot;&gt;5Kb&lt;/font&gt;" style="text;html=1;align=center;verticalAlign=middle;whiteSpace=wrap;rounded=0;" vertex="1" parent="1">
                    <mxGeometry x="758.5" y="477" width="181" height="28" as="geometry"/>
                </mxCell>
                <mxCell id="31" value="&lt;font style=&quot;color: light-dark(rgb(255, 255, 255), rgb(237, 237, 237));&quot;&gt;5Kb&lt;/font&gt;" style="text;html=1;align=center;verticalAlign=middle;whiteSpace=wrap;rounded=0;" vertex="1" parent="1">
                    <mxGeometry x="341.5" y="474" width="181" height="28" as="geometry"/>
                </mxCell>
                <mxCell id="32" value="" style="endArrow=classic;startArrow=classic;html=1;strokeColor=light-dark(#ffffff, #ededed);" edge="1" parent="1">
                    <mxGeometry width="50" height="50" relative="1" as="geometry">
                        <mxPoint x="66.42855398995536" y="760" as="sourcePoint"/>
                        <mxPoint x="957" y="756" as="targetPoint"/>
                    </mxGeometry>
                </mxCell>
                <mxCell id="33" value="&lt;font style=&quot;color: light-dark(rgb(255, 255, 255), rgb(237, 237, 237));&quot;&gt;128Kb&lt;/font&gt;" style="text;html=1;align=center;verticalAlign=middle;whiteSpace=wrap;rounded=0;" vertex="1" parent="1">
                    <mxGeometry x="460" y="726" width="181" height="28" as="geometry"/>
                </mxCell>
                <mxCell id="34" value="&lt;font style=&quot;color: light-dark(rgb(255, 255, 255), rgb(237, 237, 237));&quot;&gt;RAM END&lt;/font&gt;" style="text;html=1;align=center;verticalAlign=middle;whiteSpace=wrap;rounded=0;" vertex="1" parent="1">
                    <mxGeometry x="860" y="474" width="181" height="28" as="geometry"/>
                </mxCell>
                <mxCell id="36" value="&lt;font style=&quot;color: light-dark(rgb(255, 255, 255), rgb(237, 237, 237));&quot;&gt;T1 RAM END&lt;/font&gt;" style="text;html=1;align=center;verticalAlign=middle;whiteSpace=wrap;rounded=0;" vertex="1" parent="1">
                    <mxGeometry x="881" y="781" width="181" height="28" as="geometry"/>
                </mxCell>
                <mxCell id="38" style="edgeStyle=none;html=1;entryX=0;entryY=0.75;entryDx=0;entryDy=0;strokeColor=light-dark(#ff0000, #ededed);" edge="1" parent="1" source="37" target="26">
                    <mxGeometry relative="1" as="geometry"/>
                </mxCell>
                <mxCell id="37" value="&lt;font style=&quot;color: light-dark(rgb(255, 255, 255), rgb(237, 237, 237));&quot;&gt;T1 RAM START&lt;/font&gt;" style="text;html=1;align=center;verticalAlign=middle;whiteSpace=wrap;rounded=0;" vertex="1" parent="1">
                    <mxGeometry x="674" y="781" width="181" height="28" as="geometry"/>
                </mxCell>
                <mxCell id="39" style="edgeStyle=none;html=1;exitX=0.5;exitY=0;exitDx=0;exitDy=0;entryX=1;entryY=0.75;entryDx=0;entryDy=0;strokeColor=light-dark(#ff0000, #ededed);" edge="1" parent="1" source="36" target="26">
                    <mxGeometry relative="1" as="geometry"/>
                </mxCell>
                <mxCell id="40" value="&lt;font style=&quot;color: light-dark(rgb(255, 255, 255), rgb(237, 237, 237));&quot;&gt;Scheduling&lt;/font&gt;" style="text;html=1;align=center;verticalAlign=middle;whiteSpace=wrap;rounded=0;" vertex="1" parent="1">
                    <mxGeometry x="68" y="900" width="97" height="22" as="geometry"/>
                </mxCell>
                <mxCell id="41" value="" style="endArrow=none;html=1;" edge="1" parent="1">
                    <mxGeometry width="50" height="50" relative="1" as="geometry">
                        <mxPoint x="267" y="941" as="sourcePoint"/>
                        <mxPoint x="317" y="891" as="targetPoint"/>
                    </mxGeometry>
                </mxCell>
                <mxCell id="45" value="" style="endArrow=none;html=1;rounded=1;strokeColor=light-dark(#ffffff, #ededed);align=center;verticalAlign=middle;fontFamily=Helvetica;fontSize=11;fontColor=default;labelBackgroundColor=default;" edge="1" parent="1">
                    <mxGeometry width="50" height="50" relative="1" as="geometry">
                        <mxPoint x="90" y="1040" as="sourcePoint"/>
                        <mxPoint x="490" y="1040" as="targetPoint"/>
                    </mxGeometry>
                </mxCell>
                <mxCell id="46" value="" style="endArrow=classic;html=1;rounded=1;strokeColor=light-dark(#ffffff, #ededed);align=center;verticalAlign=middle;fontFamily=Helvetica;fontSize=11;fontColor=default;labelBackgroundColor=default;" edge="1" parent="1">
                    <mxGeometry width="50" height="50" relative="1" as="geometry">
                        <mxPoint x="160" y="1040" as="sourcePoint"/>
                        <mxPoint x="160" y="961" as="targetPoint"/>
                    </mxGeometry>
                </mxCell>
                <mxCell id="47" value="" style="endArrow=classic;html=1;rounded=1;strokeColor=light-dark(#ffffff, #ededed);align=center;verticalAlign=middle;fontFamily=Helvetica;fontSize=11;fontColor=default;labelBackgroundColor=default;" edge="1" parent="1">
                    <mxGeometry width="50" height="50" relative="1" as="geometry">
                        <mxPoint x="240" y="1040" as="sourcePoint"/>
                        <mxPoint x="240" y="961" as="targetPoint"/>
                    </mxGeometry>
                </mxCell>
                <mxCell id="48" value="" style="endArrow=classic;html=1;rounded=1;strokeColor=light-dark(#ffffff, #ededed);align=center;verticalAlign=middle;fontFamily=Helvetica;fontSize=11;fontColor=default;labelBackgroundColor=default;" edge="1" parent="1">
                    <mxGeometry width="50" height="50" relative="1" as="geometry">
                        <mxPoint x="320" y="1040" as="sourcePoint"/>
                        <mxPoint x="320" y="961" as="targetPoint"/>
                    </mxGeometry>
                </mxCell>
                <mxCell id="49" value="" style="endArrow=classic;html=1;rounded=1;strokeColor=light-dark(#ffffff, #ededed);align=center;verticalAlign=middle;fontFamily=Helvetica;fontSize=11;fontColor=default;labelBackgroundColor=default;" edge="1" parent="1">
                    <mxGeometry width="50" height="50" relative="1" as="geometry">
                        <mxPoint x="199.5" y="1040" as="sourcePoint"/>
                        <mxPoint x="199.5" y="961" as="targetPoint"/>
                    </mxGeometry>
                </mxCell>
                <mxCell id="50" value="" style="endArrow=classic;html=1;rounded=1;strokeColor=light-dark(#ffffff, #ededed);align=center;verticalAlign=middle;fontFamily=Helvetica;fontSize=11;fontColor=default;labelBackgroundColor=default;" edge="1" parent="1">
                    <mxGeometry width="50" height="50" relative="1" as="geometry">
                        <mxPoint x="280" y="1040" as="sourcePoint"/>
                        <mxPoint x="280" y="961" as="targetPoint"/>
                    </mxGeometry>
                </mxCell>
                <mxCell id="51" value="" style="endArrow=classic;html=1;rounded=1;strokeColor=light-dark(#ffffff, #ededed);align=center;verticalAlign=middle;fontFamily=Helvetica;fontSize=11;fontColor=default;labelBackgroundColor=default;" edge="1" parent="1">
                    <mxGeometry width="50" height="50" relative="1" as="geometry">
                        <mxPoint x="360" y="1040" as="sourcePoint"/>
                        <mxPoint x="360" y="961" as="targetPoint"/>
                    </mxGeometry>
                </mxCell>
                <mxCell id="55" value="" style="endArrow=classic;html=1;rounded=1;strokeColor=light-dark(#ffffff, #ededed);align=center;verticalAlign=middle;fontFamily=Helvetica;fontSize=11;fontColor=default;labelBackgroundColor=default;" edge="1" parent="1">
                    <mxGeometry width="50" height="50" relative="1" as="geometry">
                        <mxPoint x="440" y="1039" as="sourcePoint"/>
                        <mxPoint x="440" y="960" as="targetPoint"/>
                    </mxGeometry>
                </mxCell>
                <mxCell id="56" value="" style="endArrow=classic;html=1;rounded=1;strokeColor=light-dark(#ffffff, #ededed);align=center;verticalAlign=middle;fontFamily=Helvetica;fontSize=11;fontColor=default;labelBackgroundColor=default;" edge="1" parent="1">
                    <mxGeometry width="50" height="50" relative="1" as="geometry">
                        <mxPoint x="400" y="1039" as="sourcePoint"/>
                        <mxPoint x="400" y="960" as="targetPoint"/>
                    </mxGeometry>
                </mxCell>
                <mxCell id="57" value="" style="endArrow=classic;html=1;rounded=1;strokeColor=light-dark(#ffffff, #ededed);align=center;verticalAlign=middle;fontFamily=Helvetica;fontSize=11;fontColor=default;labelBackgroundColor=default;" edge="1" parent="1">
                    <mxGeometry width="50" height="50" relative="1" as="geometry">
                        <mxPoint x="480" y="1039" as="sourcePoint"/>
                        <mxPoint x="480" y="960" as="targetPoint"/>
                    </mxGeometry>
                </mxCell>
                <mxCell id="58" value="1ms" style="text;html=1;align=center;verticalAlign=middle;resizable=0;points=[];autosize=1;strokeColor=none;fillColor=none;fontFamily=Helvetica;fontSize=11;fontColor=light-dark(#ffffff, #ededed);labelBackgroundColor=none;" vertex="1" parent="1">
                    <mxGeometry x="160" y="978" width="40" height="30" as="geometry"/>
                </mxCell>
                <mxCell id="59" value="1ms" style="text;html=1;align=center;verticalAlign=middle;resizable=0;points=[];autosize=1;strokeColor=none;fillColor=none;fontFamily=Helvetica;fontSize=11;fontColor=light-dark(#ffffff, #ededed);labelBackgroundColor=none;" vertex="1" parent="1">
                    <mxGeometry x="200" y="978" width="40" height="30" as="geometry"/>
                </mxCell>
                <mxCell id="60" value="1ms" style="text;html=1;align=center;verticalAlign=middle;resizable=0;points=[];autosize=1;strokeColor=none;fillColor=none;fontFamily=Helvetica;fontSize=11;fontColor=light-dark(#ffffff, #ededed);labelBackgroundColor=none;" vertex="1" parent="1">
                    <mxGeometry x="240" y="978" width="40" height="30" as="geometry"/>
                </mxCell>
                <mxCell id="61" value="1ms" style="text;html=1;align=center;verticalAlign=middle;resizable=0;points=[];autosize=1;strokeColor=none;fillColor=none;fontFamily=Helvetica;fontSize=11;fontColor=light-dark(#ffffff, #ededed);labelBackgroundColor=none;" vertex="1" parent="1">
                    <mxGeometry x="280" y="978" width="40" height="30" as="geometry"/>
                </mxCell>
                <mxCell id="62" value="1ms" style="text;html=1;align=center;verticalAlign=middle;resizable=0;points=[];autosize=1;strokeColor=none;fillColor=none;fontFamily=Helvetica;fontSize=11;fontColor=light-dark(#ffffff, #ededed);labelBackgroundColor=none;" vertex="1" parent="1">
                    <mxGeometry x="320" y="978" width="40" height="30" as="geometry"/>
                </mxCell>
                <mxCell id="63" value="1ms" style="text;html=1;align=center;verticalAlign=middle;resizable=0;points=[];autosize=1;strokeColor=none;fillColor=none;fontFamily=Helvetica;fontSize=11;fontColor=light-dark(#ffffff, #ededed);labelBackgroundColor=none;" vertex="1" parent="1">
                    <mxGeometry x="360" y="978" width="40" height="30" as="geometry"/>
                </mxCell>
                <mxCell id="64" value="1ms" style="text;html=1;align=center;verticalAlign=middle;resizable=0;points=[];autosize=1;strokeColor=none;fillColor=none;fontFamily=Helvetica;fontSize=11;fontColor=light-dark(#ffffff, #ededed);labelBackgroundColor=none;" vertex="1" parent="1">
                    <mxGeometry x="400" y="978" width="40" height="30" as="geometry"/>
                </mxCell>
                <mxCell id="65" value="1ms" style="text;html=1;align=center;verticalAlign=middle;resizable=0;points=[];autosize=1;strokeColor=none;fillColor=none;fontFamily=Helvetica;fontSize=11;fontColor=light-dark(#ffffff, #ededed);labelBackgroundColor=none;" vertex="1" parent="1">
                    <mxGeometry x="440" y="978" width="40" height="30" as="geometry"/>
                </mxCell>
                <mxCell id="66" value="T1" style="text;html=1;align=center;verticalAlign=middle;resizable=0;points=[];autosize=1;strokeColor=none;fillColor=none;fontFamily=Helvetica;fontSize=11;fontColor=light-dark(#ffffff, #ededed);labelBackgroundColor=none;" vertex="1" parent="1">
                    <mxGeometry x="140" y="928" width="40" height="30" as="geometry"/>
                </mxCell>
                <mxCell id="67" value="T2" style="text;html=1;align=center;verticalAlign=middle;resizable=0;points=[];autosize=1;strokeColor=none;fillColor=none;fontFamily=Helvetica;fontSize=11;fontColor=light-dark(#ffffff, #ededed);labelBackgroundColor=none;" vertex="1" parent="1">
                    <mxGeometry x="180" y="928" width="40" height="30" as="geometry"/>
                </mxCell>
                <mxCell id="68" value="T3" style="text;html=1;align=center;verticalAlign=middle;resizable=0;points=[];autosize=1;strokeColor=none;fillColor=none;fontFamily=Helvetica;fontSize=11;fontColor=light-dark(#ffffff, #ededed);labelBackgroundColor=none;" vertex="1" parent="1">
                    <mxGeometry x="220" y="928" width="40" height="30" as="geometry"/>
                </mxCell>
                <mxCell id="70" value="T4" style="text;html=1;align=center;verticalAlign=middle;resizable=0;points=[];autosize=1;strokeColor=none;fillColor=none;fontFamily=Helvetica;fontSize=11;fontColor=light-dark(#ffffff, #ededed);labelBackgroundColor=none;" vertex="1" parent="1">
                    <mxGeometry x="260" y="928" width="40" height="30" as="geometry"/>
                </mxCell>
                <mxCell id="75" value="T1" style="text;html=1;align=center;verticalAlign=middle;resizable=0;points=[];autosize=1;strokeColor=none;fillColor=none;fontFamily=Helvetica;fontSize=11;fontColor=light-dark(#ffffff, #ededed);labelBackgroundColor=none;" vertex="1" parent="1">
                    <mxGeometry x="300" y="928" width="40" height="30" as="geometry"/>
                </mxCell>
                <mxCell id="76" value="T2" style="text;html=1;align=center;verticalAlign=middle;resizable=0;points=[];autosize=1;strokeColor=none;fillColor=none;fontFamily=Helvetica;fontSize=11;fontColor=light-dark(#ffffff, #ededed);labelBackgroundColor=none;" vertex="1" parent="1">
                    <mxGeometry x="340" y="928" width="40" height="30" as="geometry"/>
                </mxCell>
                <mxCell id="77" value="T3" style="text;html=1;align=center;verticalAlign=middle;resizable=0;points=[];autosize=1;strokeColor=none;fillColor=none;fontFamily=Helvetica;fontSize=11;fontColor=light-dark(#ffffff, #ededed);labelBackgroundColor=none;" vertex="1" parent="1">
                    <mxGeometry x="380" y="928" width="40" height="30" as="geometry"/>
                </mxCell>
                <mxCell id="78" value="T4" style="text;html=1;align=center;verticalAlign=middle;resizable=0;points=[];autosize=1;strokeColor=none;fillColor=none;fontFamily=Helvetica;fontSize=11;fontColor=light-dark(#ffffff, #ededed);labelBackgroundColor=none;" vertex="1" parent="1">
                    <mxGeometry x="420" y="928" width="40" height="30" as="geometry"/>
                </mxCell>
                <mxCell id="79" value="T1" style="text;html=1;align=center;verticalAlign=middle;resizable=0;points=[];autosize=1;strokeColor=none;fillColor=none;fontFamily=Helvetica;fontSize=11;fontColor=light-dark(#ffffff, #ededed);labelBackgroundColor=none;" vertex="1" parent="1">
                    <mxGeometry x="460" y="928" width="40" height="30" as="geometry"/>
                </mxCell>
                <mxCell id="80" value="" style="endArrow=classic;html=1;rounded=1;strokeColor=light-dark(#ffffff, #ededed);align=center;verticalAlign=middle;fontFamily=Helvetica;fontSize=11;fontColor=default;labelBackgroundColor=default;" edge="1" parent="1">
                    <mxGeometry width="50" height="50" relative="1" as="geometry">
                        <mxPoint x="360" y="1060" as="sourcePoint"/>
                        <mxPoint x="480" y="1060" as="targetPoint"/>
                    </mxGeometry>
                </mxCell>
                <mxCell id="82" value="Time" style="text;html=1;align=center;verticalAlign=middle;resizable=0;points=[];autosize=1;strokeColor=none;fillColor=none;fontFamily=Helvetica;fontSize=11;fontColor=light-dark(#ffffff, #ededed);labelBackgroundColor=none;" vertex="1" parent="1">
                    <mxGeometry x="380.5" y="1038" width="50" height="30" as="geometry"/>
                </mxCell>
                <mxCell id="83" value="Systick exception for every 1ms" style="text;html=1;align=center;verticalAlign=middle;resizable=0;points=[];autosize=1;strokeColor=none;fillColor=none;fontFamily=Helvetica;fontSize=11;fontColor=light-dark(#ffffff, #ededed);labelBackgroundColor=none;" vertex="1" parent="1">
                    <mxGeometry x="131" y="1050" width="180" height="30" as="geometry"/>
                </mxCell>
                <mxCell id="95" value="PUSH POP" style="swimlane;whiteSpace=wrap;html=1;fontFamily=Helvetica;fontSize=11;fontColor=default;labelBackgroundColor=default;strokeColor=#FFFFFF;strokeWidth=3;movable=0;resizable=0;rotatable=0;deletable=0;editable=0;locked=1;connectable=0;" vertex="1" parent="1">
                    <mxGeometry x="50.5" y="1159" width="1000" height="255" as="geometry">
                        <mxRectangle x="192" y="1149" width="92" height="25" as="alternateBounds"/>
                    </mxGeometry>
                </mxCell>
                <mxCell id="96" value="Stack frame 1" style="swimlane;fontStyle=0;childLayout=stackLayout;horizontal=1;startSize=30;horizontalStack=0;resizeParent=1;resizeParentMax=0;resizeLast=0;collapsible=1;marginBottom=0;whiteSpace=wrap;html=1;fontFamily=Helvetica;fontSize=11;fontColor=default;labelBackgroundColor=default;rounded=0;strokeWidth=1;strokeColor=light-dark(#ffffff, #ededed);perimeterSpacing=1;movable=0;resizable=0;rotatable=0;deletable=0;editable=0;locked=1;connectable=0;rotation=90;" vertex="1" parent="95">
                    <mxGeometry x="630.5" y="-7.5" width="160.5" height="270" as="geometry">
                        <mxRectangle x="732.25" y="101.25" width="103" height="30" as="alternateBounds"/>
                    </mxGeometry>
                </mxCell>
                <mxCell id="97" value="xPSR" style="text;strokeColor=#FFFFFF;fillColor=none;align=center;verticalAlign=middle;spacingLeft=4;spacingRight=4;overflow=hidden;points=[[0,0.5],[1,0.5]];portConstraint=eastwest;rotatable=0;whiteSpace=wrap;html=1;fontFamily=Helvetica;fontSize=11;fontColor=light-dark(#ffffff, #ededed);labelBackgroundColor=none;movable=0;resizable=0;deletable=0;editable=0;locked=1;connectable=0;rotation=90;" vertex="1" parent="96">
                    <mxGeometry x="90" y="120" width="160.5" height="30" as="geometry"/>
                </mxCell>
                <mxCell id="98" value="Return Address (PC)" style="text;strokeColor=light-dark(#ffffff, #ededed);fillColor=none;align=center;verticalAlign=middle;spacingLeft=4;spacingRight=4;overflow=hidden;points=[[0,0.5],[1,0.5]];portConstraint=eastwest;rotatable=0;whiteSpace=wrap;html=1;fontFamily=Helvetica;fontSize=11;fontColor=light-dark(#ffffff, #ededed);labelBackgroundColor=none;movable=0;resizable=0;deletable=0;editable=0;locked=1;connectable=0;rotation=90;" vertex="1" parent="96">
                    <mxGeometry x="60" y="120" width="160.5" height="30" as="geometry"/>
                </mxCell>
                <mxCell id="99" value="LR" style="text;strokeColor=light-dark(#ffffff, #ededed);fillColor=none;align=center;verticalAlign=middle;spacingLeft=4;spacingRight=4;overflow=hidden;points=[[0,0.5],[1,0.5]];portConstraint=eastwest;rotatable=0;whiteSpace=wrap;html=1;fontFamily=Helvetica;fontSize=11;fontColor=light-dark(#ffffff, #ededed);labelBackgroundColor=none;movable=0;resizable=0;deletable=0;editable=0;locked=1;connectable=0;rotation=90;" vertex="1" parent="96">
                    <mxGeometry x="30" y="120" width="160.5" height="30" as="geometry"/>
                </mxCell>
                <mxCell id="108" value="R12" style="text;strokeColor=light-dark(#ffffff, #ededed);fillColor=none;align=center;verticalAlign=middle;spacingLeft=4;spacingRight=4;overflow=hidden;points=[[0,0.5],[1,0.5]];portConstraint=eastwest;rotatable=0;whiteSpace=wrap;html=1;fontFamily=Helvetica;fontSize=11;fontColor=light-dark(#ffffff, #ededed);labelBackgroundColor=none;movable=0;resizable=0;deletable=0;editable=0;locked=1;connectable=0;rotation=90;" vertex="1" parent="96">
                    <mxGeometry y="120" width="160.5" height="30" as="geometry"/>
                </mxCell>
                <mxCell id="109" value="R3" style="text;strokeColor=#FFFFFF;fillColor=none;align=center;verticalAlign=middle;spacingLeft=4;spacingRight=4;overflow=hidden;points=[[0,0.5],[1,0.5]];portConstraint=eastwest;rotatable=0;whiteSpace=wrap;html=1;fontFamily=Helvetica;fontSize=11;fontColor=light-dark(#ffffff, #ededed);labelBackgroundColor=none;movable=0;resizable=0;deletable=0;editable=0;locked=1;connectable=0;rotation=90;" vertex="1" parent="96">
                    <mxGeometry x="-30" y="120" width="160.5" height="30" as="geometry"/>
                </mxCell>
                <mxCell id="110" value="R2" style="text;strokeColor=light-dark(#ffffff, #ededed);fillColor=none;align=center;verticalAlign=middle;spacingLeft=4;spacingRight=4;overflow=hidden;points=[[0,0.5],[1,0.5]];portConstraint=eastwest;rotatable=0;whiteSpace=wrap;html=1;fontFamily=Helvetica;fontSize=11;fontColor=light-dark(#ffffff, #ededed);labelBackgroundColor=none;movable=0;resizable=0;deletable=0;editable=0;locked=1;connectable=0;rotation=90;" vertex="1" parent="96">
                    <mxGeometry x="-60" y="120" width="160.5" height="30" as="geometry"/>
                </mxCell>
                <mxCell id="111" value="R1" style="text;strokeColor=light-dark(#ffffff, #ededed);fillColor=none;align=center;verticalAlign=middle;spacingLeft=4;spacingRight=4;overflow=hidden;points=[[0,0.5],[1,0.5]];portConstraint=eastwest;rotatable=0;whiteSpace=wrap;html=1;fontFamily=Helvetica;fontSize=11;fontColor=light-dark(#ffffff, #ededed);labelBackgroundColor=none;movable=0;resizable=0;deletable=0;editable=0;locked=1;connectable=0;rotation=90;" vertex="1" parent="96">
                    <mxGeometry x="-90" y="120" width="160.5" height="30" as="geometry"/>
                </mxCell>
                <mxCell id="112" value="R0" style="text;strokeColor=light-dark(#ffffff, #ededed);fillColor=none;align=center;verticalAlign=middle;spacingLeft=4;spacingRight=4;overflow=hidden;points=[[0,0.5],[1,0.5]];portConstraint=eastwest;rotatable=0;whiteSpace=wrap;html=1;fontFamily=Helvetica;fontSize=11;fontColor=light-dark(#ffffff, #ededed);labelBackgroundColor=none;movable=0;resizable=0;deletable=0;editable=0;locked=1;connectable=0;rotation=90;" vertex="1" parent="96">
                    <mxGeometry x="-120" y="120" width="160.5" height="30" as="geometry"/>
                </mxCell>
                <mxCell id="121" value="Stack frame 2&lt;div&gt;&lt;br&gt;&lt;/div&gt;" style="swimlane;fontStyle=0;childLayout=stackLayout;horizontal=1;startSize=30;horizontalStack=0;resizeParent=1;resizeParentMax=0;resizeLast=0;collapsible=1;marginBottom=0;whiteSpace=wrap;html=1;fontFamily=Helvetica;fontSize=11;fontColor=default;labelBackgroundColor=default;rounded=0;strokeWidth=1;strokeColor=light-dark(#ffffff, #ededed);perimeterSpacing=1;movable=0;resizable=0;rotatable=0;deletable=0;editable=0;locked=1;connectable=0;rotation=90;" vertex="1" parent="95">
                    <mxGeometry x="359.5" y="-7.5" width="160.5" height="270" as="geometry">
                        <mxRectangle x="461.25" y="101.25" width="103" height="30" as="alternateBounds"/>
                    </mxGeometry>
                </mxCell>
                <mxCell id="122" value="R11" style="text;strokeColor=#FFFFFF;fillColor=none;align=center;verticalAlign=middle;spacingLeft=4;spacingRight=4;overflow=hidden;points=[[0,0.5],[1,0.5]];portConstraint=eastwest;rotatable=0;whiteSpace=wrap;html=1;fontFamily=Helvetica;fontSize=11;fontColor=light-dark(#ffffff, #ededed);labelBackgroundColor=none;movable=0;resizable=0;deletable=0;editable=0;locked=1;connectable=0;rotation=90;" vertex="1" parent="121">
                    <mxGeometry x="90" y="120" width="160.5" height="30" as="geometry"/>
                </mxCell>
                <mxCell id="123" value="R10" style="text;strokeColor=light-dark(#ffffff, #ededed);fillColor=none;align=center;verticalAlign=middle;spacingLeft=4;spacingRight=4;overflow=hidden;points=[[0,0.5],[1,0.5]];portConstraint=eastwest;rotatable=0;whiteSpace=wrap;html=1;fontFamily=Helvetica;fontSize=11;fontColor=light-dark(#ffffff, #ededed);labelBackgroundColor=none;movable=0;resizable=0;deletable=0;editable=0;locked=1;connectable=0;rotation=90;" vertex="1" parent="121">
                    <mxGeometry x="60" y="120" width="160.5" height="30" as="geometry"/>
                </mxCell>
                <mxCell id="124" value="R9" style="text;strokeColor=light-dark(#ffffff, #ededed);fillColor=none;align=center;verticalAlign=middle;spacingLeft=4;spacingRight=4;overflow=hidden;points=[[0,0.5],[1,0.5]];portConstraint=eastwest;rotatable=0;whiteSpace=wrap;html=1;fontFamily=Helvetica;fontSize=11;fontColor=light-dark(#ffffff, #ededed);labelBackgroundColor=none;movable=0;resizable=0;deletable=0;editable=0;locked=1;connectable=0;rotation=90;" vertex="1" parent="121">
                    <mxGeometry x="30" y="120" width="160.5" height="30" as="geometry"/>
                </mxCell>
                <mxCell id="125" value="R8" style="text;strokeColor=light-dark(#ffffff, #ededed);fillColor=none;align=center;verticalAlign=middle;spacingLeft=4;spacingRight=4;overflow=hidden;points=[[0,0.5],[1,0.5]];portConstraint=eastwest;rotatable=0;whiteSpace=wrap;html=1;fontFamily=Helvetica;fontSize=11;fontColor=light-dark(#ffffff, #ededed);labelBackgroundColor=none;movable=0;resizable=0;deletable=0;editable=0;locked=1;connectable=0;rotation=90;" vertex="1" parent="121">
                    <mxGeometry y="120" width="160.5" height="30" as="geometry"/>
                </mxCell>
                <mxCell id="126" value="R7" style="text;strokeColor=#FFFFFF;fillColor=none;align=center;verticalAlign=middle;spacingLeft=4;spacingRight=4;overflow=hidden;points=[[0,0.5],[1,0.5]];portConstraint=eastwest;rotatable=0;whiteSpace=wrap;html=1;fontFamily=Helvetica;fontSize=11;fontColor=light-dark(#ffffff, #ededed);labelBackgroundColor=none;movable=0;resizable=0;deletable=0;editable=0;locked=1;connectable=0;rotation=90;" vertex="1" parent="121">
                    <mxGeometry x="-30" y="120" width="160.5" height="30" as="geometry"/>
                </mxCell>
                <mxCell id="127" value="R6" style="text;strokeColor=light-dark(#ffffff, #ededed);fillColor=none;align=center;verticalAlign=middle;spacingLeft=4;spacingRight=4;overflow=hidden;points=[[0,0.5],[1,0.5]];portConstraint=eastwest;rotatable=0;whiteSpace=wrap;html=1;fontFamily=Helvetica;fontSize=11;fontColor=light-dark(#ffffff, #ededed);labelBackgroundColor=none;movable=0;resizable=0;deletable=0;editable=0;locked=1;connectable=0;rotation=90;" vertex="1" parent="121">
                    <mxGeometry x="-60" y="120" width="160.5" height="30" as="geometry"/>
                </mxCell>
                <mxCell id="128" value="R5" style="text;strokeColor=light-dark(#ffffff, #ededed);fillColor=none;align=center;verticalAlign=middle;spacingLeft=4;spacingRight=4;overflow=hidden;points=[[0,0.5],[1,0.5]];portConstraint=eastwest;rotatable=0;whiteSpace=wrap;html=1;fontFamily=Helvetica;fontSize=11;fontColor=light-dark(#ffffff, #ededed);labelBackgroundColor=none;movable=0;resizable=0;deletable=0;editable=0;locked=1;connectable=0;rotation=90;" vertex="1" parent="121">
                    <mxGeometry x="-90" y="120" width="160.5" height="30" as="geometry"/>
                </mxCell>
                <mxCell id="129" value="R4" style="text;strokeColor=light-dark(#ffffff, #ededed);fillColor=none;align=center;verticalAlign=middle;spacingLeft=4;spacingRight=4;overflow=hidden;points=[[0,0.5],[1,0.5]];portConstraint=eastwest;rotatable=0;whiteSpace=wrap;html=1;fontFamily=Helvetica;fontSize=11;fontColor=light-dark(#ffffff, #ededed);labelBackgroundColor=none;movable=0;resizable=0;deletable=0;editable=0;locked=1;connectable=0;rotation=90;" vertex="1" parent="121">
                    <mxGeometry x="-120" y="120" width="160.5" height="30" as="geometry"/>
                </mxCell>
                <mxCell id="130" value="Task 1 Stack area" style="text;html=1;align=center;verticalAlign=middle;resizable=0;points=[];autosize=1;strokeColor=none;fillColor=none;fontFamily=Helvetica;fontSize=11;fontColor=default;labelBackgroundColor=default;" vertex="1" parent="95">
                    <mxGeometry x="878.5" y="91" width="105" height="25" as="geometry"/>
                </mxCell>
                <mxCell id="131" value="Task 2 Stack area" style="text;html=1;align=center;verticalAlign=middle;resizable=0;points=[];autosize=1;strokeColor=none;fillColor=none;fontFamily=Helvetica;fontSize=11;fontColor=default;labelBackgroundColor=default;" vertex="1" parent="95">
                    <mxGeometry x="184.5" y="85" width="105" height="25" as="geometry"/>
                </mxCell>
                <mxCell id="132" value="Task 3 Stack area" style="text;html=1;align=center;verticalAlign=middle;resizable=0;points=[];autosize=1;strokeColor=none;fillColor=none;fontFamily=Helvetica;fontSize=11;fontColor=default;labelBackgroundColor=default;" vertex="1" parent="95">
                    <mxGeometry x="35.5" y="85" width="105" height="25" as="geometry"/>
                </mxCell>
                <mxCell id="134" value="" style="endArrow=none;dashed=1;html=1;rounded=1;strokeColor=light-dark(#ff0000, #ededed);align=center;verticalAlign=middle;fontFamily=Helvetica;fontSize=11;fontColor=default;labelBackgroundColor=default;" edge="1" parent="95">
                    <mxGeometry width="50" height="50" relative="1" as="geometry">
                        <mxPoint x="868.5" y="255" as="sourcePoint"/>
                        <mxPoint x="868.5" y="23" as="targetPoint"/>
                    </mxGeometry>
                </mxCell>
                <mxCell id="133" value="" style="endArrow=none;dashed=1;html=1;rounded=1;strokeColor=light-dark(#ff0000, #ededed);align=center;verticalAlign=middle;fontFamily=Helvetica;fontSize=11;fontColor=default;labelBackgroundColor=default;" edge="1" parent="1">
                    <mxGeometry width="50" height="50" relative="1" as="geometry">
                        <mxPoint x="216" y="1415" as="sourcePoint"/>
                        <mxPoint x="216" y="1183" as="targetPoint"/>
                    </mxGeometry>
                </mxCell>
                <mxCell id="135" value="" style="shape=flexArrow;endArrow=classic;html=1;rounded=1;strokeColor=light-dark(#ffffff, #ededed);align=center;verticalAlign=middle;fontFamily=Helvetica;fontSize=11;fontColor=default;labelBackgroundColor=default;" edge="1" parent="1">
                    <mxGeometry width="50" height="50" relative="1" as="geometry">
                        <mxPoint x="365" y="1475" as="sourcePoint"/>
                        <mxPoint x="365" y="1369" as="targetPoint"/>
                    </mxGeometry>
                </mxCell>
                <mxCell id="136" value="SP (PSP)" style="text;html=1;align=center;verticalAlign=middle;resizable=0;points=[];autosize=1;strokeColor=none;fillColor=none;fontFamily=Helvetica;fontSize=11;fontColor=#FFFFFF;labelBackgroundColor=none;" vertex="1" parent="1">
                    <mxGeometry x="335" y="1481" width="65" height="25" as="geometry"/>
                </mxCell>
                <mxCell id="137" value="&lt;font style=&quot;font-size: 12px;&quot; face=&quot;Tahoma&quot;&gt;* Lưu một số stack frame giả&lt;/font&gt;&lt;div&gt;&lt;font style=&quot;font-size: 12px;&quot; face=&quot;Tahoma&quot;&gt;* Điền vào vùng stack T2 bằng 2 stack frame giả&lt;/font&gt;&lt;/div&gt;&lt;div&gt;&lt;font style=&quot;font-size: 12px;&quot; face=&quot;Tahoma&quot;&gt;* Lưu stack frame 1 rồi stack frame 2, sau đó lưu giá trị PSP này trong một biến toàn cục&lt;/font&gt;&lt;/div&gt;&lt;div&gt;&lt;font style=&quot;font-size: 12px;&quot; face=&quot;Tahoma&quot;&gt;* Stack frame 1 R12 - R0 lưu bằng 0, Stack frame 2 R11 - R4=0&lt;/font&gt;&lt;/div&gt;" style="text;html=1;align=left;verticalAlign=middle;resizable=0;points=[];autosize=1;strokeColor=none;fillColor=none;fontFamily=Helvetica;fontSize=11;fontColor=default;labelBackgroundColor=default;" vertex="1" parent="1">
                    <mxGeometry x="420" y="1427" width="492" height="74" as="geometry"/>
                </mxCell>
                <mxCell id="140" value="&lt;font face=&quot;Tahoma&quot;&gt;&lt;span style=&quot;font-size: 12px;&quot;&gt;* Ngược lại, đầu tiên là POP SF2&lt;/span&gt;&lt;/font&gt;&lt;div&gt;&lt;font face=&quot;Tahoma&quot;&gt;&lt;span style=&quot;font-size: 12px;&quot;&gt;* Khi đó, thoát khỏi Handler exception&lt;/span&gt;&lt;/font&gt;&lt;/div&gt;&lt;div&gt;&lt;font face=&quot;Tahoma&quot;&gt;&lt;span style=&quot;font-size: 12px;&quot;&gt;* Bắt đầu làm việc ở task 3 vì return address là của task 3&lt;/span&gt;&lt;/font&gt;&lt;/div&gt;&lt;div&gt;&lt;font face=&quot;Tahoma&quot;&gt;&lt;span style=&quot;font-size: 12px;&quot;&gt;&lt;br&gt;&lt;/span&gt;&lt;/font&gt;&lt;/div&gt;&lt;div&gt;&lt;font face=&quot;Tahoma&quot;&gt;&lt;span style=&quot;font-size: 12px;&quot;&gt;=&amp;gt; Đây là các truy xuất ngữ cảnh&lt;/span&gt;&lt;/font&gt;&lt;/div&gt;" style="text;html=1;align=left;verticalAlign=middle;resizable=0;points=[];autosize=1;strokeColor=none;fillColor=none;fontFamily=Helvetica;fontSize=11;fontColor=default;labelBackgroundColor=default;" vertex="1" parent="1">
                    <mxGeometry x="24" y="1444" width="327" height="90" as="geometry"/>
                </mxCell>
                <UserObject label="&lt;font face=&quot;Tahoma&quot;&gt;&lt;span style=&quot;font-size: 12px;&quot;&gt;* Đang trong T2, PSP đang trỏ tới RAM_END&lt;/span&gt;&lt;/font&gt;&lt;div&gt;&lt;font face=&quot;Tahoma&quot;&gt;&lt;span style=&quot;font-size: 12px;&quot;&gt;* Có exception xảy ra, stack frame sẽ được tự động lưu trữ trong private stack&lt;/span&gt;&lt;/font&gt;&lt;/div&gt;&lt;div&gt;&lt;font face=&quot;Tahoma&quot;&gt;&lt;span style=&quot;font-size: 12px;&quot;&gt;của T2&lt;/span&gt;&lt;/font&gt;&lt;/div&gt;&lt;div&gt;&lt;font face=&quot;Tahoma&quot;&gt;&lt;span style=&quot;font-size: 12px;&quot;&gt;* Bây giờ, đang ở trong handle Systick, mình sẽ đẩy các thanh ghi R12 - R4 tạo&lt;/span&gt;&lt;/font&gt;&lt;/div&gt;&lt;div&gt;&lt;font face=&quot;Tahoma&quot;&gt;&lt;span style=&quot;font-size: 12px;&quot;&gt;thành frame stack 2, như vậy mình đã lưu được trạng thái của T2&lt;/span&gt;&lt;/font&gt;&lt;/div&gt;&lt;div&gt;&lt;font face=&quot;Tahoma&quot;&gt;&lt;span style=&quot;font-size: 12px;&quot;&gt;* Sau đó, phải lưu giá trị của PSP lại, vì sau này, lúc cần quay lại T2 sẽ lấy PSP ra,&lt;/span&gt;&lt;/font&gt;&lt;/div&gt;&lt;div&gt;&lt;font face=&quot;Tahoma&quot;&gt;&lt;span style=&quot;font-size: 12px;&quot;&gt;và PSP lưu trữ bằng biến toàn cục.&lt;/span&gt;&lt;/font&gt;&lt;/div&gt;&lt;div&gt;&lt;font face=&quot;Tahoma&quot;&gt;&lt;span style=&quot;font-size: 12px;&quot;&gt;=&amp;gt; &lt;b&gt;Đây gọi là lưu ngữ cảnh&lt;/b&gt;&lt;/span&gt;&lt;/font&gt;&lt;/div&gt;" id="141">
                    <mxCell style="text;html=1;align=left;verticalAlign=middle;resizable=0;points=[];autosize=1;strokeColor=none;fillColor=none;fontFamily=Helvetica;fontSize=11;fontColor=default;labelBackgroundColor=default;" vertex="1" parent="1">
                        <mxGeometry x="1105" y="1115" width="453" height="137" as="geometry"/>
                    </mxCell>
                </UserObject>
                <mxCell id="143" value="&lt;span&gt;&lt;font style=&quot;color: light-dark(rgb(255, 255, 255), rgb(237, 237, 237));&quot;&gt;0x01000000 Dùng tập lệnh Thumb&lt;/font&gt;&lt;/span&gt;" style="text;html=1;align=center;verticalAlign=middle;resizable=0;points=[];autosize=1;strokeColor=none;fillColor=none;fontFamily=Helvetica;fontSize=11;fontColor=default;labelBackgroundColor=none;" vertex="1" parent="1">
                    <mxGeometry x="893" y="1072" width="187" height="25" as="geometry"/>
                </mxCell>
                <mxCell id="146" value="" style="endArrow=classic;html=1;rounded=1;strokeColor=light-dark(#ffffff, #ededed);align=center;verticalAlign=middle;fontFamily=Helvetica;fontSize=11;fontColor=none;labelBackgroundColor=none;exitX=0.603;exitY=1.097;exitDx=0;exitDy=0;exitPerimeter=0;noLabel=1;" edge="1" parent="1" source="143">
                    <mxGeometry width="50" height="50" relative="1" as="geometry">
                        <mxPoint x="878" y="1095" as="sourcePoint"/>
                        <mxPoint x="847" y="1232" as="targetPoint"/>
                    </mxGeometry>
                </mxCell>
                <mxCell id="147" value="&lt;font style=&quot;color: light-dark(rgb(255, 255, 255), rgb(237, 237, 237));&quot;&gt;Địa chỉ task 3&lt;/font&gt;" style="text;html=1;align=center;verticalAlign=middle;resizable=0;points=[];autosize=1;strokeColor=none;fillColor=none;fontFamily=Helvetica;fontSize=11;fontColor=default;labelBackgroundColor=none;" vertex="1" parent="1">
                    <mxGeometry x="776" y="1086" width="84" height="25" as="geometry"/>
                </mxCell>
                <mxCell id="148" value="" style="endArrow=classic;html=1;rounded=1;strokeColor=light-dark(#ffffff, #ededed);align=center;verticalAlign=middle;fontFamily=Helvetica;fontSize=11;fontColor=none;labelBackgroundColor=default;exitX=0.6;exitY=1.078;exitDx=0;exitDy=0;exitPerimeter=0;noLabel=1;textShadow=0;" edge="1" parent="1" source="147">
                    <mxGeometry width="50" height="50" relative="1" as="geometry">
                        <mxPoint x="784" y="1097" as="sourcePoint"/>
                        <mxPoint x="826" y="1219" as="targetPoint"/>
                    </mxGeometry>
                </mxCell>
            </root>
        </mxGraphModel>
    </diagram>
</mxfile>